<?xml version="1.0" encoding="UTF-8" standalone="no"?>
<svg width="512px" height="512px" viewBox="0 0 512 512" version="1.1" xmlns="http://www.w3.org/2000/svg" xmlns:xlink="http://www.w3.org/1999/xlink" xmlns:sketch="http://www.bohemiancoding.com/sketch/ns">
    <!-- Generator: Sketch Beta 3.3.2 (12041) - http://www.bohemiancoding.com/sketch -->
    <title>deploy-tracker-white</title>
    <desc>Created with Sketch Beta.</desc>
    <defs></defs>
    <g id="Page-1" stroke="none" stroke-width="1" fill="none" fill-rule="evenodd" sketch:type="MSPage">
        <g id="deploy-tracker-white" sketch:type="MSArtboardGroup" fill="#FFFFFF">
            <g id="icon" sketch:type="MSLayerGroup" transform="translate(93.000000, 39.000000)">
                <path d="M163,0 C72.8066667,0 0,72.695 0,162.75 C0,271.25 163,434 163,434 C163,434 326,271.25 326,162.75 C326,72.695 253.193333,0 163,0 L163,0 L163,0 Z M163,54.25 C223.31,54.25 271.666667,103.075 271.666667,162.75 C271.666667,222.9675 223.31,271.25 163,271.25 C103.233333,271.25 54.3333333,222.9675 54.3333333,162.75 C54.3333333,103.075 103.233333,54.25 163,54.25 L163,54.25 L163,54.25 Z" id="Shape" sketch:type="MSShapeGroup"></path>
                <g id="Shape-+-Oval-1-Copy" transform="translate(82.000000, 81.000000)" sketch:type="MSShapeGroup">
                    <path d="M14.1683532,91.8222967 L9.36800212,91.8222967 C4.04962265,91.8222967 0,87.1343727 0,81.5991068 L0,79.1163587 C0,73.5893726 4.04848664,68.8931688 9.36800212,68.8931688 L14.2065836,68.8931688 C19.043974,41.0514425 41.0275302,19.0860429 68.8931688,14.2511427 L68.8931688,9.36800212 C68.8931688,4.04962265 73.5810928,0 79.1163587,0 L81.5991068,0 C87.1260929,0 91.8222967,4.04848664 91.8222967,9.36800212 L91.8222967,14.2080384 C119.806977,18.9541393 141.908223,40.9678132 146.760144,68.8931688 L151.347463,68.8931688 C156.665843,68.8931688 160.715465,73.5810928 160.715465,79.1163587 L160.715465,81.5991068 C160.715465,87.1260929 156.666979,91.8222967 151.347463,91.8222967 L146.798374,91.8222967 C142.025384,119.853049 119.881178,141.970998 91.8222967,146.729683 L91.8222967,151.347463 C91.8222967,156.665843 87.1343727,160.715465 81.5991068,160.715465 L79.1163587,160.715465 C73.5893726,160.715465 68.8931688,156.666979 68.8931688,151.347463 L68.8931688,146.686578 C40.9534229,141.83882 18.9270871,119.769326 14.1683532,91.8222967 L14.1683532,91.8222967 Z M80.2018203,127.320578 C106.270666,127.320578 127.403641,106.206197 127.403641,80.1602889 C127.403641,54.1143806 106.270666,33 80.2018203,33 C54.1329748,33 33,54.1143806 33,80.1602889 C33,106.206197 54.1329748,127.320578 80.2018203,127.320578 Z" id="Shape"></path>
                    <ellipse id="Oval-1-Copy" cx="80.4833638" cy="80.4688606" rx="16.4833638" ry="16.4688606"></ellipse>
                </g>
            </g>
        </g>
    </g>
</svg>